<svg width="21" height="19" viewBox="0 0 21 19" fill="none" xmlns="http://www.w3.org/2000/svg">
<path d="M0.80207 8.83792C2.84813 7.54517 5.13208 6.46618 7.26609 5.3817C10.9374 3.60541 14.6233 1.8599 18.3464 0.234856C19.0708 -0.0420193 20.3724 -0.312754 20.5 0.91857C20.4301 2.66157 20.1426 4.39436 19.9454 6.12715C19.445 9.93772 18.8665 13.7352 18.3024 17.5333C18.108 18.7984 16.7264 19.4533 15.8424 18.6437C13.7178 16.9976 11.577 15.3675 9.47958 13.6832C8.79253 12.8824 9.42964 11.7324 10.0432 11.1605C11.7931 9.18248 13.6488 7.50189 15.3072 5.4216C15.7545 4.18252 14.4327 5.22677 13.9968 5.54677C11.6012 7.44035 9.26434 9.44953 6.73871 11.1137C5.44862 11.9283 3.94499 11.2322 2.65548 10.7777C1.4993 10.2285 -0.194969 9.67531 0.801953 8.83807L0.80207 8.83792Z" fill="white"/>
</svg>
