<svg width="34" height="34" viewBox="0 0 34 34" fill="none" xmlns="http://www.w3.org/2000/svg">
<path d="M22.4801 20.1042C22.3457 19.9698 22.2609 19.786 22.2609 19.5739L22.2609 11.7391L14.4261 11.7391C14.016 11.7391 13.6766 11.3997 13.6766 10.9896C13.6766 10.5795 14.016 10.2401 14.4261 10.2401L23.0104 10.2401C23.4205 10.2401 23.7599 10.5795 23.7599 10.9896L23.7599 19.5739C23.7599 19.984 23.4205 20.3234 23.0104 20.3234C22.8053 20.3305 22.6144 20.2385 22.4801 20.1042Z" fill="white"/>
<path d="M10.4593 23.5407C10.1693 23.2508 10.1693 22.77 10.4593 22.4801L22.3599 10.5795C22.6498 10.2896 23.1306 10.2896 23.4205 10.5795C23.7104 10.8694 23.7104 11.3502 23.4205 11.6401L11.5199 23.5407C11.23 23.8307 10.7492 23.8307 10.4593 23.5407Z" fill="white"/>
</svg>
