<svg width="38" height="38" viewBox="0 0 38 38" fill="none" xmlns="http://www.w3.org/2000/svg">
<g filter="url(#filter0_d_4512_2261)">
<path d="M23.9518 5.18188H14.0482C9.74637 5.18188 7.18182 7.74643 7.18182 12.0482V21.9401C7.18182 26.2537 9.74637 28.8182 14.0482 28.8182H23.94C28.2418 28.8182 30.8064 26.2537 30.8064 21.9519V12.0482C30.8182 7.74643 28.2536 5.18188 23.9518 5.18188ZM23.7982 16.0192L19.6264 20.191C19.4491 20.3682 19.2246 20.451 19 20.451C18.7755 20.451 18.5509 20.3682 18.3736 20.191L14.2018 16.0192C13.8591 15.6764 13.8591 15.1092 14.2018 14.7664C14.5446 14.4237 15.1118 14.4237 15.4546 14.7664L19 18.3119L22.5455 14.7664C22.8882 14.4237 23.4555 14.4237 23.7982 14.7664C24.1409 15.1092 24.1409 15.6646 23.7982 16.0192Z" fill="white"/>
</g>
<defs>
<filter id="filter0_d_4512_2261" x="0.281824" y="0.281885" width="37.4246" height="37.4364" filterUnits="userSpaceOnUse" color-interpolation-filters="sRGB">
<feFlood flood-opacity="0" result="BackgroundImageFix"/>
<feColorMatrix in="SourceAlpha" type="matrix" values="0 0 0 0 0 0 0 0 0 0 0 0 0 0 0 0 0 0 127 0" result="hardAlpha"/>
<feOffset dy="2"/>
<feGaussianBlur stdDeviation="3.45"/>
<feComposite in2="hardAlpha" operator="out"/>
<feColorMatrix type="matrix" values="0 0 0 0 0.391667 0 0 0 0 0.7445 0 0 0 0 1 0 0 0 0.24 0"/>
<feBlend mode="normal" in2="BackgroundImageFix" result="effect1_dropShadow_4512_2261"/>
<feBlend mode="normal" in="SourceGraphic" in2="effect1_dropShadow_4512_2261" result="shape"/>
</filter>
</defs>
</svg>
