<svg width="27" height="26" viewBox="0 0 27 26" fill="none" xmlns="http://www.w3.org/2000/svg">
<path d="M18.5383 4.03877V2.39863C18.5383 1.96757 18.1808 1.61011 17.7497 1.61011C17.3187 1.61011 16.9612 1.96757 16.9612 2.39863V3.97568H10.1273V2.39863C10.1273 1.96757 9.76987 1.61011 9.33881 1.61011C8.90775 1.61011 8.55029 1.96757 8.55029 2.39863V4.03877C5.71159 4.30161 4.3343 5.99431 4.12403 8.50708C4.103 8.81197 4.35533 9.0643 4.64971 9.0643H22.4388C22.7437 9.0643 22.9961 8.80146 22.9645 8.50708C22.7543 5.99431 21.377 4.30161 18.5383 4.03877Z" fill="#64BEFF"/>
<path d="M21.9553 10.6414H5.1334C4.55515 10.6414 4.08203 11.1145 4.08203 11.6927V18.1691C4.08203 21.3232 5.65908 23.426 9.33887 23.426H17.7498C21.4296 23.426 23.0066 21.3232 23.0066 18.1691V11.6927C23.0066 11.1145 22.5335 10.6414 21.9553 10.6414ZM10.611 19.4413C10.5585 19.4834 10.5059 19.5359 10.4533 19.5675C10.3902 19.6095 10.3272 19.6411 10.2641 19.6621C10.201 19.6936 10.1379 19.7147 10.0748 19.7252C10.0012 19.7357 9.93815 19.7462 9.86455 19.7462C9.72787 19.7462 9.5912 19.7147 9.46503 19.6621C9.32835 19.6095 9.22322 19.5359 9.11808 19.4413C8.92883 19.2415 8.81318 18.9682 8.81318 18.6948C8.81318 18.4215 8.92883 18.1481 9.11808 17.9484C9.22322 17.8537 9.32835 17.7801 9.46503 17.7276C9.65428 17.6435 9.86455 17.6224 10.0748 17.6645C10.1379 17.675 10.201 17.696 10.2641 17.7276C10.3272 17.7486 10.3902 17.7801 10.4533 17.8222C10.5059 17.8643 10.5585 17.9063 10.611 17.9484C10.8003 18.1481 10.9159 18.4215 10.9159 18.6948C10.9159 18.9682 10.8003 19.2415 10.611 19.4413ZM10.611 15.7615C10.4113 15.9508 10.1379 16.0664 9.86455 16.0664C9.5912 16.0664 9.31784 15.9508 9.11808 15.7615C8.92883 15.5618 8.81318 15.2884 8.81318 15.015C8.81318 14.7417 8.92883 14.4683 9.11808 14.2686C9.41246 13.9742 9.87507 13.8796 10.2641 14.0478C10.4007 14.1004 10.5164 14.174 10.611 14.2686C10.8003 14.4683 10.9159 14.7417 10.9159 15.015C10.9159 15.2884 10.8003 15.5618 10.611 15.7615ZM14.2908 19.4413C14.091 19.6305 13.8177 19.7462 13.5443 19.7462C13.271 19.7462 12.9976 19.6305 12.7979 19.4413C12.6086 19.2415 12.493 18.9682 12.493 18.6948C12.493 18.4215 12.6086 18.1481 12.7979 17.9484C13.1869 17.5594 13.9018 17.5594 14.2908 17.9484C14.4801 18.1481 14.5957 18.4215 14.5957 18.6948C14.5957 18.9682 14.4801 19.2415 14.2908 19.4413ZM14.2908 15.7615C14.2382 15.8036 14.1857 15.8456 14.1331 15.8877C14.07 15.9297 14.0069 15.9613 13.9439 15.9823C13.8808 16.0138 13.8177 16.0349 13.7546 16.0454C13.681 16.0559 13.6179 16.0664 13.5443 16.0664C13.271 16.0664 12.9976 15.9508 12.7979 15.7615C12.6086 15.5618 12.493 15.2884 12.493 15.015C12.493 14.7417 12.6086 14.4683 12.7979 14.2686C12.8925 14.174 13.0081 14.1004 13.1448 14.0478C13.5338 13.8796 13.9964 13.9742 14.2908 14.2686C14.4801 14.4683 14.5957 14.7417 14.5957 15.015C14.5957 15.2884 14.4801 15.5618 14.2908 15.7615ZM17.9706 19.4413C17.7708 19.6305 17.4975 19.7462 17.2241 19.7462C16.9508 19.7462 16.6774 19.6305 16.4777 19.4413C16.2884 19.2415 16.1728 18.9682 16.1728 18.6948C16.1728 18.4215 16.2884 18.1481 16.4777 17.9484C16.8667 17.5594 17.5816 17.5594 17.9706 17.9484C18.1598 18.1481 18.2755 18.4215 18.2755 18.6948C18.2755 18.9682 18.1598 19.2415 17.9706 19.4413ZM17.9706 15.7615C17.918 15.8036 17.8655 15.8456 17.8129 15.8877C17.7498 15.9297 17.6867 15.9613 17.6236 15.9823C17.5606 16.0138 17.4975 16.0349 17.4344 16.0454C17.3608 16.0559 17.2872 16.0664 17.2241 16.0664C16.9508 16.0664 16.6774 15.9508 16.4777 15.7615C16.2884 15.5618 16.1728 15.2884 16.1728 15.015C16.1728 14.7417 16.2884 14.4683 16.4777 14.2686C16.5828 14.174 16.6879 14.1004 16.8246 14.0478C17.0138 13.9637 17.2241 13.9427 17.4344 13.9847C17.4975 13.9952 17.5606 14.0162 17.6236 14.0478C17.6867 14.0688 17.7498 14.1004 17.8129 14.1424C17.8655 14.1845 17.918 14.2265 17.9706 14.2686C18.1598 14.4683 18.2755 14.7417 18.2755 15.015C18.2755 15.2884 18.1598 15.5618 17.9706 15.7615Z" fill="#64BEFF"/>
</svg>
