<svg width="24" height="25" viewBox="0 0 24 25" fill="none" xmlns="http://www.w3.org/2000/svg">
<path d="M9.98996 23.25C9.78996 23.25 9.62996 23.21 9.50996 23.16C9.10996 23.01 8.42996 22.52 8.42996 20.97V14.52H6.08996C4.74996 14.52 4.26996 13.89 4.09996 13.52C3.92996 13.14 3.77996 12.37 4.65996 11.36L12.23 2.76001C13.25 1.60001 14.08 1.68001 14.48 1.83001C14.88 1.98001 15.56 2.47001 15.56 4.02001V10.47H17.9C19.24 10.47 19.72 11.1 19.89 11.47C20.06 11.85 20.21 12.62 19.33 13.63L11.76 22.23C11.05 23.04 10.43 23.25 9.98996 23.25ZM13.93 3.24001C13.9 3.28001 13.69 3.38001 13.36 3.76001L5.78996 12.36C5.50996 12.68 5.46996 12.88 5.46996 12.92C5.48996 12.93 5.66996 13.03 6.08996 13.03H9.17996C9.58996 13.03 9.92996 13.37 9.92996 13.78V20.98C9.92996 21.48 10.02 21.7 10.06 21.76C10.09 21.72 10.3 21.62 10.63 21.24L18.2 12.64C18.48 12.32 18.52 12.12 18.52 12.08C18.5 12.07 18.32 11.97 17.9 11.97H14.81C14.4 11.97 14.06 11.63 14.06 11.22V4.02001C14.07 3.52001 13.97 3.31001 13.93 3.24001Z" fill="#64BEFF"/>
</svg>
