<svg width="40" height="40" viewBox="0 0 40 40" fill="none" xmlns="http://www.w3.org/2000/svg">
<path d="M30 3.3335H10C7.23333 3.3335 5 5.55016 5 8.2835V26.4668C5 29.2002 7.23333 31.4335 10 31.4335H11.2667C12.5833 31.4335 13.8667 31.9502 14.8 32.8835L17.65 35.7002C18.95 36.9835 21.05 36.9835 22.35 35.7002L25.2 32.8835C26.1333 31.9502 27.4167 31.4335 28.7333 31.4335H30C32.7667 31.4335 35 29.2002 35 26.4668V8.2835C35 5.55016 32.7667 3.3335 30 3.3335ZM20 9.25016C21.8 9.25016 23.25 10.7168 23.25 12.5002C23.25 14.2668 21.85 15.6835 20.1167 15.7502C20.05 15.7502 19.95 15.7502 19.8667 15.7502C18.1167 15.6835 16.7333 14.2668 16.7333 12.5002C16.75 10.7168 18.2 9.25016 20 9.25016ZM24.5833 24.4835C22.0667 26.1668 17.9333 26.1668 15.4167 24.4835C13.2 23.0168 13.2 20.5835 15.4167 19.1002C17.95 17.4168 22.0833 17.4168 24.5833 19.1002C26.8 20.5835 26.8 23.0002 24.5833 24.4835Z" fill="#158FE7"/>
</svg>
