<svg width="24" height="25" viewBox="0 0 24 25" fill="none" xmlns="http://www.w3.org/2000/svg">
<path d="M7.49994 15.75C7.30994 15.75 7.11994 15.68 6.96994 15.53C6.67994 15.24 6.67994 14.76 6.96994 14.47L10.1699 11.27C10.3299 11.11 10.5399 11.03 10.7699 11.05C10.9899 11.07 11.1899 11.19 11.3199 11.38L12.4099 13.02L15.9599 9.47C16.2499 9.18 16.7299 9.18 17.0199 9.47C17.3099 9.76 17.3099 10.24 17.0199 10.53L12.8199 14.73C12.6599 14.89 12.4499 14.97 12.2199 14.95C11.9999 14.93 11.7999 14.81 11.6699 14.62L10.5799 12.98L8.02994 15.53C7.87994 15.68 7.68994 15.75 7.49994 15.75Z" fill="#64BEFF"/>
<path d="M16.5 12.75C16.09 12.75 15.75 12.41 15.75 12V10.75H14.5C14.09 10.75 13.75 10.41 13.75 10C13.75 9.59 14.09 9.25 14.5 9.25H16.5C16.91 9.25 17.25 9.59 17.25 10V12C17.25 12.41 16.91 12.75 16.5 12.75Z" fill="#64BEFF"/>
<path d="M15 23.25H9C3.57 23.25 1.25 20.93 1.25 15.5V9.5C1.25 4.07 3.57 1.75 9 1.75H15C20.43 1.75 22.75 4.07 22.75 9.5V15.5C22.75 20.93 20.43 23.25 15 23.25ZM9 3.25C4.39 3.25 2.75 4.89 2.75 9.5V15.5C2.75 20.11 4.39 21.75 9 21.75H15C19.61 21.75 21.25 20.11 21.25 15.5V9.5C21.25 4.89 19.61 3.25 15 3.25H9Z" fill="#64BEFF"/>
</svg>
