<svg width="28" height="28" viewBox="0 0 28 28" fill="none" xmlns="http://www.w3.org/2000/svg">
<path d="M25.1533 12.53L23.5666 10.6867C23.2633 10.3367 23.0183 9.68336 23.0183 9.21669V7.23336C23.0183 5.99669 22.0033 4.98169 20.7666 4.98169H18.7833C18.3283 4.98169 17.6633 4.73669 17.3133 4.43336L15.4699 2.84669C14.6649 2.15836 13.3466 2.15836 12.5299 2.84669L10.6983 4.44503C10.3483 4.73669 9.68328 4.98169 9.22828 4.98169H7.20994C5.97328 4.98169 4.95828 5.99669 4.95828 7.23336V9.22836C4.95828 9.68336 4.71328 10.3367 4.42161 10.6867L2.84661 12.5417C2.16994 13.3467 2.16994 14.6534 2.84661 15.4584L4.42161 17.3134C4.71328 17.6634 4.95828 18.3167 4.95828 18.7717V20.7667C4.95828 22.0034 5.97328 23.0184 7.20994 23.0184H9.22828C9.68328 23.0184 10.3483 23.2634 10.6983 23.5667L12.5416 25.1534C13.3466 25.8417 14.6649 25.8417 15.4816 25.1534L17.3249 23.5667C17.6749 23.2634 18.3283 23.0184 18.7949 23.0184H20.7783C22.0149 23.0184 23.0299 22.0034 23.0299 20.7667V18.7834C23.0299 18.3284 23.2749 17.6634 23.5783 17.3134L25.1649 15.47C25.8416 14.665 25.8416 13.335 25.1533 12.53ZM18.8533 11.795L13.2183 17.43C13.0549 17.5934 12.8333 17.6867 12.5999 17.6867C12.3666 17.6867 12.1449 17.5934 11.9816 17.43L9.15828 14.6067C8.81994 14.2684 8.81994 13.7084 9.15828 13.37C9.49661 13.0317 10.0566 13.0317 10.3949 13.37L12.5999 15.575L17.6166 10.5584C17.9549 10.22 18.5149 10.22 18.8533 10.5584C19.1916 10.8967 19.1916 11.4567 18.8533 11.795Z" fill="#64BEFF"/>
</svg>
